<mxfile host="app.diagrams.net" agent="Mozilla/5.0 (Macintosh; Intel Mac OS X 10_15_7) AppleWebKit/537.36 (KHTML, like Gecko) Chrome/130.0.0.0 Safari/537.36" version="24.8.4">
  <diagram name="v1" id="kd1e5ig2k19jI86BEyhs">
    <mxGraphModel dx="1195" dy="634" grid="1" gridSize="10" guides="1" tooltips="1" connect="1" arrows="1" fold="1" page="1" pageScale="1" pageWidth="1400" pageHeight="850" math="0" shadow="0">
      <root>
        <mxCell id="0" />
        <mxCell id="1" parent="0" />
        <mxCell id="4C8cU2cOpW6VKcgBvjWv-55" value="" style="group" vertex="1" connectable="0" parent="1">
          <mxGeometry x="40" y="105" width="770" height="225" as="geometry" />
        </mxCell>
        <mxCell id="4C8cU2cOpW6VKcgBvjWv-45" style="edgeStyle=orthogonalEdgeStyle;rounded=0;orthogonalLoop=1;jettySize=auto;html=1;exitX=1;exitY=0.5;exitDx=0;exitDy=0;entryX=0;entryY=0.5;entryDx=0;entryDy=0;" edge="1" parent="4C8cU2cOpW6VKcgBvjWv-55" source="4C8cU2cOpW6VKcgBvjWv-6" target="4C8cU2cOpW6VKcgBvjWv-7">
          <mxGeometry relative="1" as="geometry" />
        </mxCell>
        <mxCell id="4C8cU2cOpW6VKcgBvjWv-6" value="Define scope" style="rounded=0;whiteSpace=wrap;html=1;fontColor=#000000;strokeColor=default;fillColor=none;fontFamily=Adobe Clean;fontSize=13;strokeWidth=1;" vertex="1" parent="4C8cU2cOpW6VKcgBvjWv-55">
          <mxGeometry y="15" width="90.48788513337927" height="60" as="geometry" />
        </mxCell>
        <mxCell id="4C8cU2cOpW6VKcgBvjWv-46" style="edgeStyle=orthogonalEdgeStyle;rounded=0;orthogonalLoop=1;jettySize=auto;html=1;exitX=1;exitY=0.5;exitDx=0;exitDy=0;entryX=0;entryY=0.5;entryDx=0;entryDy=0;" edge="1" parent="4C8cU2cOpW6VKcgBvjWv-55" source="4C8cU2cOpW6VKcgBvjWv-7" target="4C8cU2cOpW6VKcgBvjWv-8">
          <mxGeometry relative="1" as="geometry" />
        </mxCell>
        <mxCell id="4C8cU2cOpW6VKcgBvjWv-7" value="Implement" style="rounded=0;whiteSpace=wrap;html=1;fontColor=#000000;strokeColor=default;fillColor=none;fontFamily=Adobe Clean;fontSize=13;strokeWidth=1;" vertex="1" parent="4C8cU2cOpW6VKcgBvjWv-55">
          <mxGeometry x="133.8544601813395" y="15" width="90.48788513337927" height="60" as="geometry" />
        </mxCell>
        <mxCell id="4C8cU2cOpW6VKcgBvjWv-47" style="edgeStyle=orthogonalEdgeStyle;rounded=0;orthogonalLoop=1;jettySize=auto;html=1;exitX=1;exitY=0.5;exitDx=0;exitDy=0;entryX=0;entryY=0.5;entryDx=0;entryDy=0;" edge="1" parent="4C8cU2cOpW6VKcgBvjWv-55" source="4C8cU2cOpW6VKcgBvjWv-8" target="4C8cU2cOpW6VKcgBvjWv-9">
          <mxGeometry relative="1" as="geometry" />
        </mxCell>
        <mxCell id="4C8cU2cOpW6VKcgBvjWv-8" value="Launch" style="rounded=0;whiteSpace=wrap;html=1;fontColor=#000000;strokeColor=default;fillColor=none;fontFamily=Adobe Clean;fontSize=13;strokeWidth=1;" vertex="1" parent="4C8cU2cOpW6VKcgBvjWv-55">
          <mxGeometry x="267.70892036267884" y="15" width="90.48788513337927" height="60" as="geometry" />
        </mxCell>
        <mxCell id="4C8cU2cOpW6VKcgBvjWv-48" style="edgeStyle=orthogonalEdgeStyle;rounded=0;orthogonalLoop=1;jettySize=auto;html=1;exitX=1;exitY=0.5;exitDx=0;exitDy=0;entryX=0;entryY=0.5;entryDx=0;entryDy=0;" edge="1" parent="4C8cU2cOpW6VKcgBvjWv-55" source="4C8cU2cOpW6VKcgBvjWv-9" target="4C8cU2cOpW6VKcgBvjWv-43">
          <mxGeometry relative="1" as="geometry" />
        </mxCell>
        <mxCell id="4C8cU2cOpW6VKcgBvjWv-9" value="Measure" style="rounded=0;whiteSpace=wrap;html=1;fontColor=#000000;strokeColor=default;fillColor=none;fontFamily=Adobe Clean;fontSize=13;strokeWidth=1;" vertex="1" parent="4C8cU2cOpW6VKcgBvjWv-55">
          <mxGeometry x="401.5624699741049" y="15" width="90.48788513337927" height="60" as="geometry" />
        </mxCell>
        <mxCell id="4C8cU2cOpW6VKcgBvjWv-52" style="edgeStyle=orthogonalEdgeStyle;rounded=0;orthogonalLoop=1;jettySize=auto;html=1;exitX=0.5;exitY=0;exitDx=0;exitDy=0;entryX=0.5;entryY=1;entryDx=0;entryDy=0;" edge="1" parent="4C8cU2cOpW6VKcgBvjWv-55" source="4C8cU2cOpW6VKcgBvjWv-10" target="4C8cU2cOpW6VKcgBvjWv-7">
          <mxGeometry relative="1" as="geometry" />
        </mxCell>
        <mxCell id="4C8cU2cOpW6VKcgBvjWv-10" value="Rollback" style="rounded=0;whiteSpace=wrap;html=1;fontColor=#000000;strokeColor=default;fillColor=none;fontFamily=Adobe Clean;fontSize=13;strokeWidth=1;" vertex="1" parent="4C8cU2cOpW6VKcgBvjWv-55">
          <mxGeometry x="133.85468782381767" y="150" width="90.48788513337927" height="60" as="geometry" />
        </mxCell>
        <mxCell id="4C8cU2cOpW6VKcgBvjWv-54" style="edgeStyle=orthogonalEdgeStyle;rounded=0;orthogonalLoop=1;jettySize=auto;html=1;exitX=0;exitY=0.5;exitDx=0;exitDy=0;entryX=0.5;entryY=1;entryDx=0;entryDy=0;" edge="1" parent="4C8cU2cOpW6VKcgBvjWv-55" source="4C8cU2cOpW6VKcgBvjWv-11" target="4C8cU2cOpW6VKcgBvjWv-8">
          <mxGeometry relative="1" as="geometry" />
        </mxCell>
        <mxCell id="4C8cU2cOpW6VKcgBvjWv-11" value="Implement" style="rounded=0;whiteSpace=wrap;html=1;fontColor=#000000;strokeColor=default;fillColor=none;fontFamily=Adobe Clean;fontSize=13;strokeWidth=1;" vertex="1" parent="4C8cU2cOpW6VKcgBvjWv-55">
          <mxGeometry x="401.5647463988882" y="150" width="90.48788513337927" height="60" as="geometry" />
        </mxCell>
        <mxCell id="4C8cU2cOpW6VKcgBvjWv-41" value="Next phase" style="rounded=0;whiteSpace=wrap;html=1;fontColor=#000000;strokeColor=default;fillColor=none;fontFamily=Adobe Clean;fontSize=13;strokeWidth=1;" vertex="1" parent="4C8cU2cOpW6VKcgBvjWv-55">
          <mxGeometry x="679.5121148666208" y="15" width="90.48788513337927" height="60" as="geometry" />
        </mxCell>
        <mxCell id="4C8cU2cOpW6VKcgBvjWv-49" style="edgeStyle=orthogonalEdgeStyle;rounded=0;orthogonalLoop=1;jettySize=auto;html=1;exitX=1;exitY=0.5;exitDx=0;exitDy=0;entryX=0;entryY=0.5;entryDx=0;entryDy=0;" edge="1" parent="4C8cU2cOpW6VKcgBvjWv-55" source="4C8cU2cOpW6VKcgBvjWv-43" target="4C8cU2cOpW6VKcgBvjWv-41">
          <mxGeometry relative="1" as="geometry" />
        </mxCell>
        <mxCell id="4C8cU2cOpW6VKcgBvjWv-56" value="No" style="edgeLabel;html=1;align=center;verticalAlign=middle;resizable=0;points=[];" vertex="1" connectable="0" parent="4C8cU2cOpW6VKcgBvjWv-49">
          <mxGeometry x="-0.6412" y="1" relative="1" as="geometry">
            <mxPoint x="12" y="-9" as="offset" />
          </mxGeometry>
        </mxCell>
        <mxCell id="4C8cU2cOpW6VKcgBvjWv-53" style="edgeStyle=orthogonalEdgeStyle;rounded=0;orthogonalLoop=1;jettySize=auto;html=1;exitX=0.5;exitY=1;exitDx=0;exitDy=0;" edge="1" parent="4C8cU2cOpW6VKcgBvjWv-55" source="4C8cU2cOpW6VKcgBvjWv-43" target="4C8cU2cOpW6VKcgBvjWv-44">
          <mxGeometry relative="1" as="geometry" />
        </mxCell>
        <mxCell id="4C8cU2cOpW6VKcgBvjWv-43" value="Conflict" style="rhombus;whiteSpace=wrap;html=1;rounded=0;fillColor=none;strokeColor=default;fontFamily=Adobe Clean;fontSize=13;strokeWidth=1;" vertex="1" parent="4C8cU2cOpW6VKcgBvjWv-55">
          <mxGeometry x="535.4171577979228" width="103.73667737177594" height="90" as="geometry" />
        </mxCell>
        <mxCell id="4C8cU2cOpW6VKcgBvjWv-50" style="edgeStyle=orthogonalEdgeStyle;rounded=0;orthogonalLoop=1;jettySize=auto;html=1;exitX=0;exitY=0.5;exitDx=0;exitDy=0;entryX=1;entryY=0.5;entryDx=0;entryDy=0;" edge="1" parent="4C8cU2cOpW6VKcgBvjWv-55" source="4C8cU2cOpW6VKcgBvjWv-44" target="4C8cU2cOpW6VKcgBvjWv-11">
          <mxGeometry relative="1" as="geometry" />
        </mxCell>
        <mxCell id="4C8cU2cOpW6VKcgBvjWv-57" value="Yes" style="edgeLabel;html=1;align=center;verticalAlign=middle;resizable=0;points=[];" vertex="1" connectable="0" parent="4C8cU2cOpW6VKcgBvjWv-50">
          <mxGeometry x="-0.1434" y="1" relative="1" as="geometry">
            <mxPoint y="-16" as="offset" />
          </mxGeometry>
        </mxCell>
        <mxCell id="4C8cU2cOpW6VKcgBvjWv-51" style="edgeStyle=orthogonalEdgeStyle;rounded=0;orthogonalLoop=1;jettySize=auto;html=1;exitX=0.5;exitY=1;exitDx=0;exitDy=0;entryX=0.5;entryY=1;entryDx=0;entryDy=0;" edge="1" parent="4C8cU2cOpW6VKcgBvjWv-55" source="4C8cU2cOpW6VKcgBvjWv-44" target="4C8cU2cOpW6VKcgBvjWv-10">
          <mxGeometry relative="1" as="geometry" />
        </mxCell>
        <mxCell id="4C8cU2cOpW6VKcgBvjWv-58" value="No" style="edgeLabel;html=1;align=center;verticalAlign=middle;resizable=0;points=[];" vertex="1" connectable="0" parent="4C8cU2cOpW6VKcgBvjWv-51">
          <mxGeometry x="-0.6262" y="1" relative="1" as="geometry">
            <mxPoint x="14" y="9" as="offset" />
          </mxGeometry>
        </mxCell>
        <mxCell id="4C8cU2cOpW6VKcgBvjWv-44" value="Quick&lt;br style=&quot;font-size: 13px;&quot;&gt;fixes" style="rhombus;whiteSpace=wrap;html=1;rounded=0;fillColor=none;strokeColor=default;fontFamily=Adobe Clean;fontSize=13;strokeWidth=1;" vertex="1" parent="4C8cU2cOpW6VKcgBvjWv-55">
          <mxGeometry x="534.0005386553189" y="135" width="106.56991565698358" height="90" as="geometry" />
        </mxCell>
      </root>
    </mxGraphModel>
  </diagram>
</mxfile>
